PathFileType	4	(X/Y/Z)	markers_results_mono.trc
DataRate	CameraRate	NumFrames	NumMarkers	Units	OrigDataRate	OrigDataStartFrame	OrigNumFrames
12.500000	12.500000	12	22	m	12.500000	1131	3015
Frame#	Time	Nose			Neck			LShoulder			RShoulder			LElbow			RElbow			LWrist			RWrist			LHip			RHip			LKnee			RKnee			LAnkle			RAnkle			LEye			REye			LThumb			LIndex			LPinky			RThumb			RIndex			RPinky
		X1	Y1	Z1	X2	Y2	Z2	X3	Y3	Z3	X4	Y4	Z4	X5	Y5	Z5	X6	Y6	Z6	X7	Y7	Z7	X8	Y8	Z8	X9	Y9	Z9	X10	Y10	Z10	X11	Y11	Z11	X12	Y12	Z12	X13	Y13	Z13	X14	Y14	Z14	X15	Y15	Z15	X16	Y16	Z16	X17	Y17	Z17	X18	Y18	Z18	X19	Y19	Z19	X20	Y20	Z20	X21	Y21	Z21	X22	Y22	Z22

1131	90.400000	0.060624	-0.628438	0.210838	0.050041	-0.661025	0.241046	0.064999	-0.734770	0.276602	0.035082	-0.587281	0.205490	-0.046869	-0.449931	0.117928	-0.034466	-0.340669	0.025444	-0.028244	-0.360366	0.097703	0.097964	-0.318731	0.105192	0.003456	-0.246809	0.125276	0.017881	-0.343697	0.072786	-0.083426	-0.013846	-0.040542	-0.109454	0.144456	-0.095606	-0.250818	-0.003436	-0.212706	-0.227687	0.029768	-0.303909	0.060624	-0.628438	0.210838	0.060624	-0.628438	0.210838	-0.028244	-0.360366	0.097703	-0.028244	-0.360366	0.097703	-0.028244	-0.360366	0.097703	0.097964	-0.318731	0.105192	0.097964	-0.318731	0.105192	0.097964	-0.318731	0.105192
1132	90.480000	0.025392	-0.439654	0.135722	0.015356	-0.421204	0.157110	0.026773	-0.445072	0.172513	0.003939	-0.397336	0.141706	-0.022657	-0.252203	0.073575	-0.018991	-0.254726	0.022130	-0.020507	-0.215498	0.073254	0.061585	-0.240029	0.074982	-0.010455	-0.138309	0.068243	-0.004464	-0.204878	0.052564	-0.069288	-0.088762	-0.016306	-0.054981	-0.064907	-0.039158	-0.190133	0.086390	-0.133069	-0.186296	0.066473	-0.201003	0.025392	-0.439654	0.135722	0.025392	-0.439654	0.135722	-0.020507	-0.215498	0.073254	-0.020507	-0.215498	0.073254	-0.020507	-0.215498	0.073254	0.061585	-0.240029	0.074982	0.061585	-0.240029	0.074982	0.061585	-0.240029	0.074982
1133	90.560000	0.018454	-0.435444	0.125660	0.006819	-0.400293	0.142769	0.017441	-0.413338	0.153848	-0.003802	-0.387248	0.131689	-0.019984	-0.234115	0.066932	-0.017060	-0.263157	0.021489	-0.020390	-0.199703	0.074165	0.055182	-0.242231	0.072804	-0.015230	-0.130006	0.056902	-0.010514	-0.191279	0.046750	-0.068115	-0.113218	-0.010855	-0.045187	-0.132724	-0.027577	-0.176308	0.075424	-0.115700	-0.172744	0.046430	-0.177656	0.018454	-0.435444	0.125660	0.018454	-0.435444	0.125660	-0.020390	-0.199703	0.074165	-0.020390	-0.199703	0.074165	-0.020390	-0.199703	0.074165	0.055182	-0.242231	0.072804	0.055182	-0.242231	0.072804	0.055182	-0.242231	0.072804
1134	90.640000	0.025456	-0.494764	0.149234	0.011714	-0.468580	0.163554	0.022155	-0.490473	0.176258	0.001273	-0.446687	0.150849	-0.026275	-0.297848	0.077292	-0.025285	-0.292137	0.028184	-0.019023	-0.245339	0.082420	0.056069	-0.274486	0.081509	-0.015073	-0.163387	0.071506	-0.007554	-0.231405	0.054717	-0.069556	-0.099628	-0.013876	-0.059576	-0.090356	-0.037162	-0.179807	0.035230	-0.130090	-0.171289	0.030546	-0.203560	0.025456	-0.494764	0.149234	0.025456	-0.494764	0.149234	-0.019023	-0.245339	0.082420	-0.019023	-0.245339	0.082420	-0.019023	-0.245339	0.082420	0.056069	-0.274486	0.081509	0.056069	-0.274486	0.081509	0.056069	-0.274486	0.081509
1135	90.720000	0.030834	-0.523897	0.149838	0.014567	-0.502513	0.162323	0.023202	-0.521429	0.175541	0.005932	-0.483596	0.149105	-0.032368	-0.327752	0.072755	-0.031426	-0.308994	0.028580	-0.018056	-0.265682	0.077398	0.046719	-0.297631	0.074665	-0.013710	-0.181536	0.075066	-0.005778	-0.246544	0.057836	-0.069033	-0.102780	-0.013373	-0.064781	-0.070355	-0.039806	-0.178957	0.015370	-0.132201	-0.162793	0.036919	-0.220404	0.030834	-0.523897	0.149838	0.030834	-0.523897	0.149838	-0.018056	-0.265682	0.077398	-0.018056	-0.265682	0.077398	-0.018056	-0.265682	0.077398	0.046719	-0.297631	0.074665	0.046719	-0.297631	0.074665	0.046719	-0.297631	0.074665
1136	90.800000	0.035171	-0.548531	0.123358	0.016573	-0.521784	0.135162	0.022058	-0.528031	0.149832	0.011088	-0.515537	0.120493	-0.040005	-0.339230	0.052825	-0.030117	-0.338566	0.014692	-0.024858	-0.274928	0.061723	0.036675	-0.326608	0.054144	-0.007633	-0.199672	0.064224	-0.003731	-0.252919	0.048950	-0.065298	-0.146980	-0.013669	-0.055077	-0.117286	-0.041168	-0.180290	0.001920	-0.125715	-0.151393	0.035374	-0.219745	0.035171	-0.548531	0.123358	0.035171	-0.548531	0.123358	-0.024858	-0.274928	0.061723	-0.024858	-0.274928	0.061723	-0.024858	-0.274928	0.061723	0.036675	-0.326608	0.054144	0.036675	-0.326608	0.054144	0.036675	-0.326608	0.054144
1137	90.880000	0.041177	-0.601465	0.110272	0.022058	-0.580903	0.119154	0.025754	-0.588970	0.136649	0.018362	-0.572835	0.101659	-0.048537	-0.404683	0.041934	-0.028840	-0.383610	0.001275	-0.036348	-0.334458	0.053136	0.035038	-0.377170	0.043282	0.000733	-0.246241	0.062851	0.000276	-0.298642	0.042786	-0.059746	-0.190255	-0.020675	-0.046375	-0.166880	-0.055978	-0.180624	-0.015609	-0.142707	-0.141405	0.006643	-0.230636	0.041177	-0.601465	0.110272	0.041177	-0.601465	0.110272	-0.036348	-0.334458	0.053136	-0.036348	-0.334458	0.053136	-0.036348	-0.334458	0.053136	0.035038	-0.377170	0.043282	0.035038	-0.377170	0.043282	0.035038	-0.377170	0.043282
1138	90.960000	0.042438	-0.654586	0.125566	0.025158	-0.659773	0.132499	0.029954	-0.685811	0.151928	0.020362	-0.633735	0.113071	-0.053302	-0.511372	0.051729	-0.036241	-0.416173	0.001753	-0.042205	-0.426744	0.056208	0.034401	-0.424382	0.046896	0.000180	-0.303725	0.079620	0.000380	-0.370184	0.050042	-0.059473	-0.187311	-0.031590	-0.051426	-0.165017	-0.077592	-0.163311	-0.020831	-0.186574	-0.125755	-0.033726	-0.259373	0.042438	-0.654586	0.125566	0.042438	-0.654586	0.125566	-0.042205	-0.426744	0.056208	-0.042205	-0.426744	0.056208	-0.042205	-0.426744	0.056208	0.034401	-0.424382	0.046896	0.034401	-0.424382	0.046896	0.034401	-0.424382	0.046896
1139	91.040000	0.034471	-0.679601	0.126660	0.019899	-0.698601	0.146814	0.025643	-0.728788	0.170493	0.014155	-0.668414	0.123135	-0.056410	-0.559097	0.062884	-0.047186	-0.439908	-0.000867	-0.042718	-0.453578	0.052268	0.029760	-0.438671	0.037867	-0.009997	-0.338816	0.089497	-0.005195	-0.405804	0.054001	-0.069240	-0.175447	-0.041544	-0.065352	-0.148109	-0.088669	-0.136658	-0.028082	-0.212833	-0.109015	-0.069821	-0.269216	0.033988	-0.687544	0.113036	0.033729	-0.695704	0.136075	-0.046172	-0.509503	-0.051738	-0.046344	-0.512840	-0.052615	-0.045370	-0.493930	-0.047643	0.029225	-0.448092	0.027649	0.029215	-0.448307	0.027694	0.029574	-0.441391	0.030022
1140	91.120000	0.024070	-0.677415	0.090528	0.011689	-0.677432	0.134660	0.015043	-0.690218	0.165893	0.008336	-0.664646	0.103427	-0.060775	-0.513843	0.061103	-0.049812	-0.464895	-0.019735	-0.043923	-0.396523	0.036147	0.027149	-0.427997	0.011282	-0.015907	-0.344977	0.074780	-0.009881	-0.383879	0.040818	-0.079360	-0.212885	-0.043750	-0.070763	-0.173603	-0.084696	-0.121395	-0.067722	-0.187601	-0.102771	-0.089938	-0.245988	0.023569	-0.685851	0.077962	0.023399	-0.692073	0.099653	-0.008444	0.317949	0.020776	-0.055506	-0.559536	-0.502515	-0.056632	-0.636822	-0.079392	0.028319	-0.411871	0.068448	0.028319	-0.411871	0.068448	0.028319	-0.411871	0.068448
1141	91.200000	0.020739	-0.665293	0.097852	0.010009	-0.671649	0.137072	0.012469	-0.699216	0.166074	0.007548	-0.644082	0.108069	-0.057094	-0.535866	0.079076	-0.048585	-0.452239	-0.010583	-0.037039	-0.433678	0.049882	0.027435	-0.438862	0.028783	-0.014927	-0.352967	0.075636	-0.012669	-0.389332	0.045535	-0.076786	-0.242414	-0.031346	-0.063949	-0.203672	-0.078033	-0.099820	-0.100182	-0.167167	-0.090205	-0.065403	-0.268837	0.020162	-0.674937	0.082808	0.019955	-0.682212	0.107016	-0.055742	-0.764035	-0.300148	-0.051047	-0.649944	-0.453471	-0.048344	-0.597461	-0.439671	0.028418	-0.425356	0.077073	0.028418	-0.425356	0.077073	0.028418	-0.425356	0.077073
1142	91.280000	0.027762	-0.689810	0.236522	0.016784	-0.803381	0.225488	0.027721	-0.921345	0.235403	0.005847	-0.685416	0.215573	-0.041880	-0.800008	0.154301	-0.063191	-0.374746	0.073097	-0.013257	-0.716213	0.129713	0.025002	-0.499546	0.136274	-0.023850	-0.388262	0.147632	-0.021082	-0.514644	0.112422	-0.072102	-0.129395	-0.018993	-0.069848	-0.119654	-0.091857	-0.048423	-0.022267	-0.258839	-0.048190	0.040918	-0.432888	0.026193	-0.716662	0.200611	0.025720	-0.734328	0.263817	-0.032871	-1.069735	-0.182812	-0.027981	-0.951020	-0.341489	-0.027624	-0.988591	0.004683	0.024183	-0.532547	0.264387	0.029121	-0.436631	0.289609	0.024012	-0.535855	0.263517
